<svg xmlns="http://www.w3.org/2000/svg" xmlns:xlink="http://www.w3.org/1999/xlink" version="1.1" class="marks" width="355" height="364" viewBox="0 0 355 364"><rect width="355" height="364" fill="white"/><g fill="none" stroke-miterlimit="10" transform="translate(50,27)"><g class="mark-group role-frame root" role="graphics-object" aria-roledescription="group mark container"><g transform="translate(0,0)"><path class="background" aria-hidden="true" d="M0.5,0.5h300v300h-300Z" stroke="#ddd"/><g><g class="mark-group role-axis" aria-hidden="true"><g transform="translate(0.5,300.5)"><path class="background" aria-hidden="true" d="M0,0h0v0h0Z" pointer-events="none"/><g><g class="mark-rule role-axis-grid" pointer-events="none"><line transform="translate(8,-300)" x2="0" y2="300" stroke="#ddd" stroke-width="1" opacity="1"/><line transform="translate(47,-300)" x2="0" y2="300" stroke="#ddd" stroke-width="1" opacity="1"/><line transform="translate(87,-300)" x2="0" y2="300" stroke="#ddd" stroke-width="1" opacity="1"/><line transform="translate(127,-300)" x2="0" y2="300" stroke="#ddd" stroke-width="1" opacity="1"/><line transform="translate(166,-300)" x2="0" y2="300" stroke="#ddd" stroke-width="1" opacity="1"/><line transform="translate(206,-300)" x2="0" y2="300" stroke="#ddd" stroke-width="1" opacity="1"/><line transform="translate(246,-300)" x2="0" y2="300" stroke="#ddd" stroke-width="1" opacity="1"/><line transform="translate(286,-300)" x2="0" y2="300" stroke="#ddd" stroke-width="1" opacity="1"/></g></g><path class="foreground" aria-hidden="true" d="" pointer-events="none" display="none"/></g></g><g class="mark-group role-axis" aria-hidden="true"><g transform="translate(0.5,0.5)"><path class="background" aria-hidden="true" d="M0,0h0v0h0Z" pointer-events="none"/><g><g class="mark-rule role-axis-grid" pointer-events="none"><line transform="translate(0,300)" x2="300" y2="0" stroke="#ddd" stroke-width="1" opacity="1"/><line transform="translate(0,270)" x2="300" y2="0" stroke="#ddd" stroke-width="1" opacity="1"/><line transform="translate(0,240)" x2="300" y2="0" stroke="#ddd" stroke-width="1" opacity="1"/><line transform="translate(0,210)" x2="300" y2="0" stroke="#ddd" stroke-width="1" opacity="1"/><line transform="translate(0,180)" x2="300" y2="0" stroke="#ddd" stroke-width="1" opacity="1"/><line transform="translate(0,150)" x2="300" y2="0" stroke="#ddd" stroke-width="1" opacity="1"/><line transform="translate(0,120)" x2="300" y2="0" stroke="#ddd" stroke-width="1" opacity="1"/><line transform="translate(0,90)" x2="300" y2="0" stroke="#ddd" stroke-width="1" opacity="1"/><line transform="translate(0,60)" x2="300" y2="0" stroke="#ddd" stroke-width="1" opacity="1"/><line transform="translate(0,30)" x2="300" y2="0" stroke="#ddd" stroke-width="1" opacity="1"/><line transform="translate(0,0)" x2="300" y2="0" stroke="#ddd" stroke-width="1" opacity="1"/></g></g><path class="foreground" aria-hidden="true" d="" pointer-events="none" display="none"/></g></g><g class="mark-group role-axis" role="graphics-symbol" aria-roledescription="axis" aria-label="X-axis titled 'Tempo' for a time scale with values from Friday, 13 March 2020, 6:19:37 PM to Thursday, 03 February 2022, 9:45:00 AM"><g transform="translate(0.5,300.5)"><path class="background" aria-hidden="true" d="M0,0h0v0h0Z" pointer-events="none"/><g><g class="mark-rule role-axis-tick" pointer-events="none"><line transform="translate(8,0)" x2="0" y2="5" stroke="#888" stroke-width="1" opacity="1"/><line transform="translate(47,0)" x2="0" y2="5" stroke="#888" stroke-width="1" opacity="1"/><line transform="translate(87,0)" x2="0" y2="5" stroke="#888" stroke-width="1" opacity="1"/><line transform="translate(127,0)" x2="0" y2="5" stroke="#888" stroke-width="1" opacity="1"/><line transform="translate(166,0)" x2="0" y2="5" stroke="#888" stroke-width="1" opacity="1"/><line transform="translate(206,0)" x2="0" y2="5" stroke="#888" stroke-width="1" opacity="1"/><line transform="translate(246,0)" x2="0" y2="5" stroke="#888" stroke-width="1" opacity="1"/><line transform="translate(286,0)" x2="0" y2="5" stroke="#888" stroke-width="1" opacity="1"/></g><g class="mark-text role-axis-label" pointer-events="none"><text text-anchor="middle" transform="translate(7.910028934573245,15)" font-family="sans-serif" font-size="10px" fill="#000" opacity="1">April</text><text text-anchor="middle" transform="translate(47.3812803031993,15)" font-family="sans-serif" font-size="10px" fill="#000" opacity="1">July</text><text text-anchor="middle" transform="translate(87.28628168686518,15)" font-family="sans-serif" font-size="10px" fill="#000" opacity="1">October</text><text text-anchor="middle" transform="translate(127.19128307053109,15)" font-family="sans-serif" font-size="10px" fill="#000" opacity="1">2021</text><text text-anchor="middle" transform="translate(166.2287844241173,15)" font-family="sans-serif" font-size="10px" fill="#000" opacity="1">April</text><text text-anchor="middle" transform="translate(205.70003579274334,15)" font-family="sans-serif" font-size="10px" fill="#000" opacity="1">July</text><text text-anchor="middle" transform="translate(245.6050371764092,15)" font-family="sans-serif" font-size="10px" fill="#000" opacity="1">October</text><text text-anchor="middle" transform="translate(285.51003856007515,15)" font-family="sans-serif" font-size="10px" fill="#000" opacity="1">2022</text></g><g class="mark-rule role-axis-domain" pointer-events="none"><line transform="translate(0,0)" x2="300" y2="0" stroke="#888" stroke-width="1" opacity="1"/></g><g class="mark-text role-axis-title" pointer-events="none"><text text-anchor="middle" transform="translate(150,30)" font-family="sans-serif" font-size="11px" font-weight="bold" fill="#000" opacity="1">Tempo</text></g></g><path class="foreground" aria-hidden="true" d="" pointer-events="none" display="none"/></g></g><g class="mark-group role-axis" role="graphics-symbol" aria-roledescription="axis" aria-label="Y-axis titled 'Saldo(em BTC)' for a linear scale with values from −300 to 700"><g transform="translate(0.5,0.5)"><path class="background" aria-hidden="true" d="M0,0h0v0h0Z" pointer-events="none"/><g><g class="mark-rule role-axis-tick" pointer-events="none"><line transform="translate(0,300)" x2="-5" y2="0" stroke="#888" stroke-width="1" opacity="1"/><line transform="translate(0,270)" x2="-5" y2="0" stroke="#888" stroke-width="1" opacity="1"/><line transform="translate(0,240)" x2="-5" y2="0" stroke="#888" stroke-width="1" opacity="1"/><line transform="translate(0,210)" x2="-5" y2="0" stroke="#888" stroke-width="1" opacity="1"/><line transform="translate(0,180)" x2="-5" y2="0" stroke="#888" stroke-width="1" opacity="1"/><line transform="translate(0,150)" x2="-5" y2="0" stroke="#888" stroke-width="1" opacity="1"/><line transform="translate(0,120)" x2="-5" y2="0" stroke="#888" stroke-width="1" opacity="1"/><line transform="translate(0,90)" x2="-5" y2="0" stroke="#888" stroke-width="1" opacity="1"/><line transform="translate(0,60)" x2="-5" y2="0" stroke="#888" stroke-width="1" opacity="1"/><line transform="translate(0,30)" x2="-5" y2="0" stroke="#888" stroke-width="1" opacity="1"/><line transform="translate(0,0)" x2="-5" y2="0" stroke="#888" stroke-width="1" opacity="1"/></g><g class="mark-text role-axis-label" pointer-events="none"><text text-anchor="end" transform="translate(-7,303)" font-family="sans-serif" font-size="10px" fill="#000" opacity="1">−300</text><text text-anchor="end" transform="translate(-7,273)" font-family="sans-serif" font-size="10px" fill="#000" opacity="1">−200</text><text text-anchor="end" transform="translate(-7,243)" font-family="sans-serif" font-size="10px" fill="#000" opacity="1">−100</text><text text-anchor="end" transform="translate(-7,213)" font-family="sans-serif" font-size="10px" fill="#000" opacity="1">0</text><text text-anchor="end" transform="translate(-7,183)" font-family="sans-serif" font-size="10px" fill="#000" opacity="1">100</text><text text-anchor="end" transform="translate(-7,153)" font-family="sans-serif" font-size="10px" fill="#000" opacity="1">200</text><text text-anchor="end" transform="translate(-7,123)" font-family="sans-serif" font-size="10px" fill="#000" opacity="1">300</text><text text-anchor="end" transform="translate(-7,93.00000000000001)" font-family="sans-serif" font-size="10px" fill="#000" opacity="1">400</text><text text-anchor="end" transform="translate(-7,62.999999999999986)" font-family="sans-serif" font-size="10px" fill="#000" opacity="1">500</text><text text-anchor="end" transform="translate(-7,32.99999999999999)" font-family="sans-serif" font-size="10px" fill="#000" opacity="1">600</text><text text-anchor="end" transform="translate(-7,3)" font-family="sans-serif" font-size="10px" fill="#000" opacity="1">700</text></g><g class="mark-rule role-axis-domain" pointer-events="none"><line transform="translate(0,300)" x2="0" y2="-300" stroke="#888" stroke-width="1" opacity="1"/></g><g class="mark-text role-axis-title" pointer-events="none"><text text-anchor="middle" transform="translate(-33.5244140625,150) rotate(-90) translate(0,-2)" font-family="sans-serif" font-size="11px" font-weight="bold" fill="#000" opacity="1">Saldo(em BTC)</text></g></g><path class="foreground" aria-hidden="true" d="" pointer-events="none" display="none"/></g></g><g class="mark-line role-mark marks" clip-path="url(#clip1)" role="graphics-object" aria-roledescription="line mark container"><path aria-label="Tempo: Mar 13, 2020; Saldo(em BTC): 2.4763; Saldo: 2.4763" role="graphics-symbol" aria-roledescription="line mark" d="M0,209.257L1.217,209.222L2.75,209.177L7.303,206.177L7.318,204.677L7.318,204.677L7.355,209.919L7.768,209.892L10.377,209.875L10.756,209.088L19.358,207.798L19.399,213.571L19.399,209.875L22.406,209.397L23.791,209.348L23.791,208.748L23.808,209.393L24.146,208.41L24.147,209.826L25.493,208.668L25.515,209.805L25.529,209.205L25.529,209.073L26.42,209.267L27.262,209.567L27.304,209.267L28.962,209.506L28.994,209.267L29.837,209.806L29.837,211.006L29.837,209.806L34.594,209.667L35.423,208.767L35.425,209.667L39.098,209.367L39.349,209.667L39.349,209.187L39.362,208.467L40.815,206.608L41.06,208.467L44.983,206.718L44.985,208.467L46.744,209.968L46.756,208.468L47.707,206.074L48.012,208.468L48.012,209.968L48.015,209.815L48.051,209.572L48.55,209.861L48.556,209.571L49.812,202.071L49.817,201.864L49.817,209.364L53.281,208.884L53.711,208.86L55.795,209.34L55.809,208.951L56.794,208.923L57.139,209.073L57.151,208.928L57.533,208.874L57.678,208.83L58.93,208.815L58.975,208.66L59.074,208.391L59.411,208.343L60.194,208.322L62.372,208.094L63.316,208.374L63.316,208.074L63.68,207.774L64.91,208.435L64.911,207.775L65.011,208.075L65.856,207.001L65.863,208.028L65.898,207.946L66.647,207.902L68.448,207.897L68.522,210L68.909,207.9L69.244,210L70.979,209.826L71.117,207.726L71.533,209.826L71.944,209.456L71.944,208.856L71.949,208.644L71.97,209.014L72.395,208.797L72.396,208.097L72.41,207.815L72.835,207.786L74.487,208.386L74.508,208.062L74.521,208.761L74.523,208.935L74.538,208.245L74.556,209.259L74.556,209.242L74.565,208.412L74.583,209.242L74.589,209.011L74.972,208.976L74.988,208.641L75.032,209.259L75.035,208.92L75.416,209.179L75.418,208.92L75.819,209.179L75.846,209.41L75.875,209.839L75.897,208.99L75.938,208.723L77.537,209.839L77.577,209.013L77.608,208.113L77.921,209.013L77.926,208.833L77.929,208.359L77.935,208.256L77.949,207.928L78.348,204.061L78.357,203.161L78.357,204.928L78.357,208.794L78.472,208.523L78.477,208.793L78.598,207.593L78.784,209.693L78.834,209.82L78.879,209.451L78.88,209.357L79.324,209.507L79.383,209.357L80.177,209.171L80.186,208.855L80.568,209.088L80.568,208.989L80.573,208.754L81.002,213.706L81.002,208.754L81.128,206.954L81.389,209.07L81.42,208.776L81.43,208.453L81.494,207.553L81.505,208.453L81.863,209.965L81.863,211.35L81.863,209.965L81.868,207.823L81.87,207.223L81.89,209.965L83.208,209.901L83.23,209.665L83.23,209.601L83.565,208.689L83.576,209.469L84.874,207.969L84.88,209.705L86.213,208.001L86.219,209.705L86.272,211.947L86.272,209.694L86.739,209.394L87.539,205.648L87.543,209.394L87.578,209.954L87.594,209.556L87.602,210.554L87.602,209.954L89.235,210.42L89.235,209.951L89.28,213.425L89.28,209.951L89.334,209.943L89.336,209.634L89.708,211.281L89.708,209.618L89.739,209.927L89.746,209.802L89.746,209.744L90.074,209.66L90.077,209.494L90.12,208.894L90.122,209.494L90.954,209.735L91.045,209.502L91.045,209.836L91.045,209.259L92.65,208.563L92.667,209.259L92.803,209.962L92.804,209.269L93.15,207.395L93.159,209.257L93.372,208.629L93.532,206.203L93.552,209.322L94.022,209.266L94.066,208.679L94.077,209.373L94.077,208.674L94.592,209.371L95.411,208.984L95.497,209.371L96.227,209.303L96.261,209.095L96.709,209.42L96.752,209.096L96.803,209.065L98.442,207.598L98.443,209.058L98.761,207.112L98.771,209.048L99.61,209.635L99.626,209.144L99.686,211.814L99.686,209.134L100.08,208.97L100.1,210.628L100.1,208.96L100.121,209.451L100.126,209.049L100.188,209.451L101.4,209.752L101.777,206.334L101.791,209.752L101.889,209.676L101.903,209.376L101.906,209.79L101.91,209.478L101.916,209.478L102.216,209.759L102.218,209.476L102.314,209.828L102.315,209.499L102.776,209.818L102.781,209.499L103.156,209.592L103.158,209.292L103.224,209.185L103.224,209.18L104.658,208.58L104.813,209.181L104.892,209.803L104.892,209.177L104.917,209.48L104.917,209.18L104.933,212.773L104.933,209.15L105.73,209.073L106.175,209.396L106.182,209.072L106.208,207.397L106.219,209.047L107.424,209.283L107.43,209.046L107.43,209.013L107.925,209.615L107.933,209.043L107.949,209.268L107.962,209.042L108.042,209.012L108.288,209.277L108.301,209.024L108.384,209.533L108.388,209.018L108.413,210.293L108.413,209.006L109.242,208.256L109.245,208.988L109.246,208.986L109.267,209.889L109.278,212.021L109.278,209.889L109.278,209.589L110.507,211.078L110.507,209.589L110.571,200.531L110.573,209.4L110.603,209.147L110.605,208.909L110.884,208.904L110.94,208.83L110.94,205.988L110.942,208.812L110.975,208.413L110.985,208.888L111.001,209.174L111.002,208.887L111.754,209.508L111.757,209.859L111.757,209.232L111.766,208.88L112.237,209.277L112.251,208.875L113.504,209.775L113.504,206.634L113.517,208.946L113.534,208.76L113.721,209.96L113.98,210.496L113.98,209.957L113.982,214.157L113.982,209.953L113.985,209.95L114.035,209.939L114.039,209.339L114.052,212.04L114.052,212.87L114.052,212.27L114.052,209.87L114.434,209.869L114.494,209.352L114.503,209.867L114.842,210.46L114.842,209.86L114.903,209.981L114.905,210.498L114.905,210.378L114.905,209.858L115.346,208.305L115.357,209.858L115.389,210.463L115.389,209.856L116.563,209.4L116.572,209.856L116.731,209.854L116.959,208.312L116.971,209.851L117.393,210.894L117.393,209.851L117.413,209.584L117.413,209.647L117.418,209.912L117.424,209.848L117.854,209.526L117.866,209.848L117.872,209.968L118.324,209.838L118.331,211.486L118.331,209.838L118.353,209.897L118.357,209.838L119.575,210.268L119.575,209.835L119.63,210.545L119.63,209.832L120.006,209.963L120.006,205.998L120.007,205.877L120.02,209.842L120.494,205.404L120.5,209.842L120.501,209.238L122.65,208.966L123.035,209.266L123.035,208.58L123.035,209.184L123.089,210.907L123.089,209.184L123.499,209.183L123.889,209.088L123.905,208.665L123.912,208.909L125.456,209.959L125.696,211.12L125.696,209.959L128.672,211.436L128.672,209.955L128.719,209.865L128.748,209.955L128.788,209.641L129.134,208.741L129.147,208.646L129.174,209.859L129.648,210.257L129.648,209.856L129.982,210.366L129.982,209.856L129.995,209.703L130.438,209.648L130.439,209.009L130.449,209.609L130.45,209.569L131.745,209.632L131.829,209.611L131.933,209.547L132.173,209.235L132.197,209.548L132.205,209.305L132.221,209.485L132.246,209.547L132.301,209.484L132.58,208.999L132.583,209.482L132.664,209.967L132.667,209.387L132.688,209.957L133.081,209.804L133.107,209.518L133.464,209.134L133.503,208.852L133.51,209.675L134.785,209.614L134.81,210.307L134.81,209.61L135.799,209.609L136.17,209.59L136.173,209.53L136.539,210L136.544,209.544L136.588,208.267L136.591,209.544L136.601,209.479L136.601,209.544L136.616,210.235L136.616,209.935L137.886,210.817L137.886,209.964L137.886,209.935L137.926,209.872L138.22,209.345L138.225,209.872L138.637,208.6L138.642,207.427L138.649,207.555L138.651,210L138.652,209.985L138.656,209.685L138.667,209.985L138.673,209.786L138.684,209.985L138.697,209.888L138.711,210.578L138.711,209.984L139.084,210.432L139.084,209.999L139.113,209.637L139.126,209.998L139.165,211.938L139.165,209.998L139.515,208.49L139.526,209.971L140.814,210.584L140.814,210.527L140.814,209.914L140.858,209.997L140.896,209.636L140.909,209.996L141.302,210.471L141.302,209.996L141.335,209.75L141.341,209.996L141.683,209.865L141.715,209.86L141.716,209.815L141.823,209.794L141.862,209.794L142.156,209.764L142.157,209.793L142.199,209.749L142.212,210.76L142.212,209.745L142.216,209.931L142.216,212.128L142.216,209.931L142.221,209.976L142.221,209.79L142.233,209.976L142.258,209.828L142.559,209.819L142.563,209.79L142.615,209.838L142.641,209.79L142.652,209.985L142.652,209.804L142.661,210.573L142.661,209.798L142.721,211.251L142.721,209.798L144.354,209.498L144.398,209.492L144.475,210.606L144.475,209.792L144.849,209.974L144.852,209.862L144.853,209.792L145.326,210.509L145.326,209.79L145.341,209.789L145.691,209.384L145.693,209.789L146.088,209.971L146.104,209.796L147.855,210.278L147.855,209.794L147.878,209.137L147.881,209.794L147.884,209.651L147.884,209.825L148.218,209.791L148.228,209.786L148.274,209.891L148.317,209.786L148.341,209.965L148.69,210.112L148.69,209.965L148.693,209.86L148.733,209.83L148.733,209.816L149.957,209.805L149.968,209.784L150.461,209.992L150.479,209.785L150.479,209.753L150.499,209.786L151.31,209.849L151.315,209.179L151.322,209.115L151.322,209.785L151.343,209.636L151.345,209.066L151.652,208.887L151.669,209.187L151.692,209.929L151.692,209.993L151.799,209.835L153.028,209.407L153.028,209.402L153.036,209.804L153.036,209.777L153.038,209.821L153.43,210.571L153.43,209.821L153.49,209.853L153.52,209.821L153.535,209.799L153.542,209.823L153.837,209.727L153.871,209.574L153.886,209.785L154.264,208.839L154.273,209.785L154.284,209.777L154.324,209.766L154.335,209.68L154.355,209.388L154.369,209.699L154.369,209.991L154.377,209.86L154.454,209.84L154.74,209.817L154.756,209.926L154.769,209.817L154.789,209.732L156.039,209.777L156.051,209.746L156.483,209.777L156.487,209.065L156.507,209.777L156.522,209.763L156.525,209.735L156.859,209.483L156.868,209.425L156.937,209.399L156.944,209.371L156.979,209.486L156.999,209.431L156.999,209.412L157.33,209.289L157.417,209.288L157.423,209.316L157.44,209.27L157.781,209.17L157.881,209.193L158.262,209.139L159.037,209.116L159.058,209.208L159.065,209.115L159.097,209.068L159.1,209.161L159.18,209.138L159.458,209.759L159.458,209.133L159.566,209.243L159.578,209.157L159.593,209.782L159.619,209.544L159.882,208.919L159.902,209.544L160.413,209.277L160.417,208.951L160.427,209.457L160.458,209.446L160.468,209.433L162.057,209.367L162.07,209.311L162.294,209.275L162.556,209.427L162.557,209.337L162.619,209.309L162.628,209.275L162.926,209.124L162.946,209.219L162.95,209.124L163.069,209.123L163.069,209.448L163.075,209.256L163.369,209.145L163.411,209.072L163.464,209.006L163.464,208.927L163.47,209.006L163.478,209.072L163.493,209.058L163.494,209.041L163.501,209.077L163.523,209.056L163.852,208.997L163.866,209.092L165.613,209.078L166.561,209.1L168.146,209.401L168.159,209.037L168.167,209.403L168.226,209.395L168.234,209.359L168.256,209.33L168.266,209.359L168.682,209.498L168.689,209.361L169.002,209.38L169.016,209.327L169.025,209.464L169.032,209.417L169.156,209.393L169.575,209.365L169.909,209.393L170.014,209.433L171.268,209.365L171.751,209.393L172.07,209.514L172.071,209.393L172.63,209.39L173.084,209.09L174.24,210.053L174.24,209.08L174.26,209.444L174.279,209.42L174.704,209.386L177.38,209.411L179.005,209.401L180.747,209.352L180.75,209.376L181.171,209.465L181.182,209.415L181.26,209.444L181.277,209.415L181.35,209.865L181.363,209.415L182.087,209.371L182.088,209.415L182.158,209.413L182.168,209.393L184.285,209.414L184.313,209.393L185.192,209.426L185.195,209.392L186.435,209.426L186.474,209.4L188.245,209.488L188.247,209.404L189.478,209.448L189.482,209.403L190.266,209.448L190.268,209.406L191.224,209.464L191.233,209.406L192.543,209.348L192.547,209.394L193.42,209.452L193.431,209.432L193.431,209.398L194.29,209.437L194.315,209.389L196.79,209.791L196.795,209.432L197.299,209.528L197.299,209.432L199.045,209.474L199.045,209.431L199.835,209.477L199.835,209.431L201.567,198.931L201.602,209.431L201.621,206.431L201.693,209.431L202.401,209.483L202.405,209.43L203.061,209.13L203.403,209.093L203.404,209.13L205.572,211.198L205.572,209.489L205.993,209.542L205.995,209.488L206.405,209.579L206.405,209.509L208.997,209.568L208.997,209.508L209.459,209.558L209.459,209.507L211.091,209.464L211.096,209.514L212.043,209.377L212.517,209.431L212.517,209.376L215.021,209.421L215.553,209.559L216.857,209.515L217.69,209.471L218.487,209.501L218.511,209.471L219.797,209.508L220.743,209.551L220.743,209.444L221.628,209.428L221.628,209.389L222.955,209.357L223.305,209.395L223.306,209.331L223.346,209.245L223.73,209.171L223.777,209.201L223.785,209.177L224.11,209.057L224.11,209.163L224.11,209.189L224.662,209.226L227.691,209.218L228.962,209.09L229.729,209.518L229.769,179.518L229.773,179.391L229.773,209.391L229.824,209.38L230.021,209.378L230.024,209.978L230.168,167.078L230.182,209.978L230.266,209.978L230.407,14.978L230.428,209.978L231.698,184.478L231.918,209.978L232.016,179.978L232.018,209.978L232.34,185.978L232.372,209.978L232.781,209.972L232.871,209.672L232.877,209.669L232.877,209.969L232.916,119.969L232.948,209.969L232.96,209.999L233.651,149.999L233.656,209.999L234.684,122.999L234.69,209.999L235.854,299.999L235.854,209.999L236.214,164.999L236.217,209.999L236.651,155.999L236.662,209.999L236.67,194.999L236.687,182.999L236.711,209.999L237.992,295.499L237.992,209.999L238.187,139.499L238.402,209.999L238.541,209.999L300,210" stroke="#4c78a8" stroke-width="2"/></g><g class="mark-group role-title"><g transform="translate(150,-22)"><path class="background" aria-hidden="true" d="M0,0h0v0h0Z" pointer-events="none"/><g><g class="mark-text role-title-text" role="graphics-symbol" aria-roledescription="title" aria-label="Title text 'Histórico de saldo do cluster'" pointer-events="none"><text text-anchor="middle" transform="translate(0,10)" font-family="sans-serif" font-size="13px" font-weight="bold" fill="#000" opacity="1">Histórico de saldo do cluster</text></g></g><path class="foreground" aria-hidden="true" d="" pointer-events="none" display="none"/></g></g></g><path class="foreground" aria-hidden="true" d="" display="none"/></g></g></g><defs><clipPath id="clip1"><rect x="0" y="0" width="300" height="300"/></clipPath></defs></svg>