<?xml version="1.0" encoding="utf-8" standalone="no"?>
<!DOCTYPE svg PUBLIC "-//W3C//DTD SVG 1.1//EN"
  "http://www.w3.org/Graphics/SVG/1.1/DTD/svg11.dtd">
<svg xmlns:xlink="http://www.w3.org/1999/xlink" width="576pt" height="432pt" viewBox="0 0 576 432" xmlns="http://www.w3.org/2000/svg" version="1.1">
 <metadata>
  <rdf:RDF xmlns:dc="http://purl.org/dc/elements/1.1/" xmlns:cc="http://creativecommons.org/ns#" xmlns:rdf="http://www.w3.org/1999/02/22-rdf-syntax-ns#">
   <cc:Work>
    <dc:type rdf:resource="http://purl.org/dc/dcmitype/StillImage"/>
    <dc:date>2024-09-09T18:15:03.496887</dc:date>
    <dc:format>image/svg+xml</dc:format>
    <dc:creator>
     <cc:Agent>
      <dc:title>Matplotlib v3.9.0, https://matplotlib.org/</dc:title>
     </cc:Agent>
    </dc:creator>
   </cc:Work>
  </rdf:RDF>
 </metadata>
 <defs>
  <style type="text/css">*{stroke-linejoin: round; stroke-linecap: butt}</style>
 </defs>
 <g id="figure_1">
  <g id="patch_1">
   <path d="M 0 432 
L 576 432 
L 576 0 
L 0 0 
z
" style="fill: #ffffff"/>
  </g>
  <g id="axes_1">
   <g id="patch_2">
    <path d="M 72 384.48 
L 518.4 384.48 
L 518.4 51.84 
L 72 51.84 
z
" style="fill: #ffffff"/>
   </g>
   <g id="PolyCollection_1">
    <defs>
     <path id="mc70b6a5c66" d="M 92.290909 -62.64 
L 92.290909 -62.64 
L 93.933898 -62.64 
L 95.576886 -62.64 
L 97.219875 -62.64 
L 98.862863 -62.64 
L 100.505852 -62.64 
L 102.148841 -62.64 
L 103.791829 -62.64 
L 105.434818 -62.64 
L 107.077806 -62.64 
L 108.720795 -62.64 
L 110.363784 -62.64 
L 112.006772 -62.64 
L 113.649761 -62.64 
L 115.292749 -62.64 
L 116.935738 -62.64 
L 118.578727 -62.64 
L 120.221715 -62.64 
L 121.864704 -62.64 
L 123.507692 -62.64 
L 125.150681 -62.64 
L 126.793669 -62.64 
L 128.436658 -62.64 
L 130.079647 -62.64 
L 131.722635 -62.64 
L 133.365624 -62.64 
L 135.008612 -62.64 
L 136.651601 -62.64 
L 138.29459 -62.64 
L 139.937578 -62.64 
L 141.580567 -62.64 
L 143.223555 -62.64 
L 144.866544 -62.64 
L 146.509533 -62.64 
L 148.152521 -62.64 
L 149.79551 -62.64 
L 151.438498 -62.64 
L 153.081487 -62.64 
L 154.724476 -62.64 
L 156.367464 -62.64 
L 158.010453 -62.64 
L 159.653441 -62.64 
L 161.29643 -62.64 
L 162.939418 -62.64 
L 164.582407 -62.64 
L 166.225396 -62.64 
L 167.868384 -62.64 
L 169.511373 -62.64 
L 171.154361 -62.64 
L 172.79735 -62.64 
L 174.440339 -62.64 
L 176.083327 -62.64 
L 177.726316 -62.64 
L 179.369304 -62.64 
L 181.012293 -62.64 
L 182.655282 -62.64 
L 184.29827 -62.64 
L 185.941259 -62.64 
L 187.584247 -62.64 
L 189.227236 -62.64 
L 190.870225 -62.64 
L 192.513213 -62.64 
L 194.156202 -62.64 
L 195.79919 -62.64 
L 197.442179 -62.64 
L 199.085167 -62.64 
L 200.728156 -62.64 
L 202.371145 -62.64 
L 204.014133 -62.64 
L 205.657122 -62.64 
L 207.30011 -62.64 
L 208.943099 -62.64 
L 210.586088 -62.64 
L 212.229076 -62.64 
L 213.872065 -62.64 
L 215.515053 -62.64 
L 217.158042 -62.64 
L 218.801031 -62.64 
L 220.444019 -62.64 
L 222.087008 -62.64 
L 223.729996 -62.64 
L 225.372985 -62.64 
L 227.015974 -62.64 
L 228.658962 -62.64 
L 230.301951 -62.64 
L 231.944939 -62.64 
L 233.587928 -62.64 
L 235.230916 -62.64 
L 236.873905 -62.64 
L 238.516894 -62.64 
L 240.159882 -62.64 
L 241.802871 -62.64 
L 243.445859 -62.64 
L 245.088848 -62.64 
L 246.731837 -62.64 
L 248.374825 -62.64 
L 250.017814 -62.64 
L 251.660802 -62.64 
L 253.303791 -62.64 
L 254.94678 -62.64 
L 256.589768 -62.64 
L 258.232757 -62.64 
L 259.875745 -62.64 
L 261.518734 -62.64 
L 263.161722 -62.64 
L 264.804711 -62.64 
L 266.4477 -62.64 
L 268.090688 -62.64 
L 269.733677 -62.64 
L 271.376665 -62.64 
L 273.019654 -62.64 
L 274.662643 -62.64 
L 276.305631 -62.64 
L 277.94862 -62.64 
L 279.591608 -62.64 
L 281.234597 -62.64 
L 282.877586 -62.64 
L 284.520574 -62.64 
L 286.163563 -62.64 
L 287.806551 -62.64 
L 289.44954 -62.64 
L 291.092529 -62.64 
L 292.735517 -62.64 
L 294.378506 -62.64 
L 296.021494 -62.64 
L 297.664483 -62.64 
L 299.307471 -62.64 
L 300.95046 -62.64 
L 302.593449 -62.64 
L 304.236437 -62.64 
L 305.879426 -62.64 
L 307.522414 -62.64 
L 309.165403 -62.64 
L 310.808392 -62.64 
L 312.45138 -62.64 
L 314.094369 -62.64 
L 315.737357 -62.64 
L 317.380346 -62.64 
L 319.023335 -62.64 
L 320.666323 -62.64 
L 322.309312 -62.64 
L 323.9523 -62.64 
L 325.595289 -62.64 
L 327.238278 -62.64 
L 328.881266 -62.64 
L 330.524255 -62.64 
L 332.167243 -62.64 
L 333.810232 -62.64 
L 335.45322 -62.64 
L 337.096209 -62.64 
L 338.739198 -62.64 
L 340.382186 -62.64 
L 342.025175 -62.64 
L 343.668163 -62.64 
L 345.311152 -62.64 
L 346.954141 -62.64 
L 348.597129 -62.64 
L 350.240118 -62.64 
L 351.883106 -62.64 
L 353.526095 -62.64 
L 355.169084 -62.64 
L 356.812072 -62.64 
L 358.455061 -62.64 
L 360.098049 -62.64 
L 361.741038 -62.64 
L 363.384026 -62.64 
L 365.027015 -62.64 
L 366.670004 -62.64 
L 368.312992 -62.64 
L 369.955981 -62.64 
L 371.598969 -62.64 
L 373.241958 -62.64 
L 374.884947 -62.64 
L 376.527935 -62.64 
L 378.170924 -62.64 
L 379.813912 -62.64 
L 381.456901 -62.64 
L 383.09989 -62.64 
L 384.742878 -62.64 
L 386.385867 -62.64 
L 388.028855 -62.64 
L 389.671844 -62.64 
L 391.314833 -62.64 
L 392.957821 -62.64 
L 394.60081 -62.64 
L 396.243798 -62.64 
L 397.886787 -62.64 
L 399.529775 -62.64 
L 401.172764 -62.64 
L 402.815753 -62.64 
L 404.458741 -62.64 
L 406.10173 -62.64 
L 407.744718 -62.64 
L 409.387707 -62.64 
L 411.030696 -62.64 
L 412.673684 -62.64 
L 414.316673 -62.64 
L 415.959661 -62.64 
L 417.60265 -62.64 
L 419.245639 -62.64 
L 420.888627 -62.64 
L 422.531616 -62.64 
L 424.174604 -62.64 
L 425.817593 -62.64 
L 427.460582 -62.64 
L 429.10357 -62.64 
L 430.746559 -62.64 
L 432.389547 -62.64 
L 434.032536 -62.64 
L 435.675524 -62.64 
L 437.318513 -62.64 
L 438.961502 -62.64 
L 440.60449 -62.64 
L 442.247479 -62.64 
L 443.890467 -62.64 
L 445.533456 -62.64 
L 447.176445 -62.64 
L 448.819433 -62.64 
L 450.462422 -62.64 
L 452.10541 -62.64 
L 453.748399 -62.64 
L 455.391388 -62.64 
L 457.034376 -62.64 
L 458.677365 -62.64 
L 460.320353 -62.64 
L 461.963342 -62.64 
L 463.606331 -62.64 
L 465.249319 -62.64 
L 466.892308 -62.64 
L 468.535296 -62.64 
L 470.178285 -62.64 
L 471.821273 -62.64 
L 473.464262 -62.64 
L 475.107251 -62.64 
L 476.750239 -62.64 
L 478.393228 -62.64 
L 480.036216 -62.98235 
L 481.679205 -63.492287 
L 483.322194 -64.031145 
L 484.965182 -66.864091 
L 486.608171 -70.024285 
L 488.251159 -74.624747 
L 489.894148 -80.022005 
L 491.537137 -85.548521 
L 493.180125 -95.193637 
L 494.823114 -119.391559 
L 496.466102 -230.799456 
L 498.109091 -365.04 
L 498.109091 -365.04 
L 498.109091 -365.04 
L 496.466102 -363.815709 
L 494.823114 -362.591417 
L 493.180125 -361.367126 
L 491.537137 -360.142834 
L 489.894148 -358.918543 
L 488.251159 -357.694251 
L 486.608171 -356.46996 
L 484.965182 -355.245668 
L 483.322194 -354.021377 
L 481.679205 -352.797085 
L 480.036216 -351.572794 
L 478.393228 -350.348502 
L 476.750239 -349.124211 
L 475.107251 -347.899919 
L 473.464262 -346.675628 
L 471.821273 -345.451336 
L 470.178285 -344.227045 
L 468.535296 -343.002753 
L 466.892308 -341.778462 
L 465.249319 -340.55417 
L 463.606331 -339.329879 
L 461.963342 -338.105587 
L 460.320353 -336.881296 
L 458.677365 -335.657004 
L 457.034376 -334.432713 
L 455.391388 -333.208421 
L 453.748399 -331.98413 
L 452.10541 -330.759838 
L 450.462422 -329.535547 
L 448.819433 -328.311255 
L 447.176445 -327.086964 
L 445.533456 -325.862672 
L 443.890467 -324.638381 
L 442.247479 -323.414089 
L 440.60449 -322.189798 
L 438.961502 -320.965506 
L 437.318513 -319.741215 
L 435.675524 -318.516923 
L 434.032536 -317.292632 
L 432.389547 -316.06834 
L 430.746559 -314.844049 
L 429.10357 -313.619757 
L 427.460582 -312.395466 
L 425.817593 -311.171174 
L 424.174604 -309.946883 
L 422.531616 -308.722591 
L 420.888627 -307.4983 
L 419.245639 -306.274008 
L 417.60265 -305.049717 
L 415.959661 -303.825425 
L 414.316673 -302.601134 
L 412.673684 -301.376842 
L 411.030696 -300.152551 
L 409.387707 -298.928259 
L 407.744718 -297.703968 
L 406.10173 -296.479676 
L 404.458741 -295.255385 
L 402.815753 -294.031093 
L 401.172764 -292.806802 
L 399.529775 -291.58251 
L 397.886787 -290.358219 
L 396.243798 -289.133927 
L 394.60081 -287.909636 
L 392.957821 -286.685344 
L 391.314833 -285.461053 
L 389.671844 -284.236761 
L 388.028855 -283.01247 
L 386.385867 -281.788178 
L 384.742878 -280.563887 
L 383.09989 -279.339595 
L 381.456901 -278.115304 
L 379.813912 -276.891012 
L 378.170924 -275.666721 
L 376.527935 -274.442429 
L 374.884947 -273.218138 
L 373.241958 -271.993846 
L 371.598969 -270.769555 
L 369.955981 -269.545263 
L 368.312992 -268.320972 
L 366.670004 -267.09668 
L 365.027015 -265.872389 
L 363.384026 -264.648097 
L 361.741038 -263.423806 
L 360.098049 -262.199514 
L 358.455061 -260.975223 
L 356.812072 -259.750931 
L 355.169084 -258.52664 
L 353.526095 -257.302348 
L 351.883106 -256.078057 
L 350.240118 -254.853765 
L 348.597129 -253.629474 
L 346.954141 -252.405182 
L 345.311152 -251.180891 
L 343.668163 -249.956599 
L 342.025175 -248.732308 
L 340.382186 -247.508016 
L 338.739198 -246.283725 
L 337.096209 -245.059433 
L 335.45322 -243.835142 
L 333.810232 -242.61085 
L 332.167243 -241.386559 
L 330.524255 -240.162267 
L 328.881266 -238.937976 
L 327.238278 -237.713684 
L 325.595289 -236.489393 
L 323.9523 -235.265101 
L 322.309312 -234.04081 
L 320.666323 -232.816518 
L 319.023335 -231.592227 
L 317.380346 -230.367935 
L 315.737357 -229.143644 
L 314.094369 -227.919352 
L 312.45138 -226.695061 
L 310.808392 -225.470769 
L 309.165403 -224.246478 
L 307.522414 -223.022186 
L 305.879426 -221.797895 
L 304.236437 -220.573603 
L 302.593449 -219.349312 
L 300.95046 -218.12502 
L 299.307471 -216.900729 
L 297.664483 -215.676437 
L 296.021494 -214.452146 
L 294.378506 -213.227854 
L 292.735517 -212.003563 
L 291.092529 -210.779271 
L 289.44954 -209.55498 
L 287.806551 -208.330688 
L 286.163563 -207.106397 
L 284.520574 -205.882105 
L 282.877586 -204.657814 
L 281.234597 -203.433522 
L 279.591608 -202.209231 
L 277.94862 -200.984939 
L 276.305631 -199.760648 
L 274.662643 -198.536356 
L 273.019654 -197.312065 
L 271.376665 -196.087773 
L 269.733677 -194.863482 
L 268.090688 -193.63919 
L 266.4477 -192.414899 
L 264.804711 -191.190607 
L 263.161722 -189.966316 
L 261.518734 -188.742024 
L 259.875745 -187.517733 
L 258.232757 -186.293441 
L 256.589768 -185.06915 
L 254.94678 -183.844858 
L 253.303791 -182.620567 
L 251.660802 -181.396275 
L 250.017814 -180.171984 
L 248.374825 -178.947692 
L 246.731837 -177.723401 
L 245.088848 -176.499109 
L 243.445859 -175.274818 
L 241.802871 -174.050526 
L 240.159882 -172.826235 
L 238.516894 -171.601943 
L 236.873905 -170.377652 
L 235.230916 -169.15336 
L 233.587928 -167.929069 
L 231.944939 -166.704777 
L 230.301951 -165.480486 
L 228.658962 -164.256194 
L 227.015974 -163.031903 
L 225.372985 -161.807611 
L 223.729996 -160.58332 
L 222.087008 -159.359028 
L 220.444019 -158.134737 
L 218.801031 -156.910445 
L 217.158042 -155.686154 
L 215.515053 -154.461862 
L 213.872065 -153.237571 
L 212.229076 -152.013279 
L 210.586088 -150.788988 
L 208.943099 -149.564696 
L 207.30011 -148.340405 
L 205.657122 -147.116113 
L 204.014133 -145.891822 
L 202.371145 -144.66753 
L 200.728156 -143.443239 
L 199.085167 -142.218947 
L 197.442179 -140.994656 
L 195.79919 -139.770364 
L 194.156202 -138.546073 
L 192.513213 -137.321781 
L 190.870225 -136.09749 
L 189.227236 -134.873198 
L 187.584247 -133.648907 
L 185.941259 -132.424615 
L 184.29827 -131.200324 
L 182.655282 -129.976032 
L 181.012293 -128.751741 
L 179.369304 -127.527449 
L 177.726316 -126.303158 
L 176.083327 -125.078866 
L 174.440339 -123.854575 
L 172.79735 -122.630283 
L 171.154361 -121.405992 
L 169.511373 -120.1817 
L 167.868384 -118.957409 
L 166.225396 -117.733117 
L 164.582407 -116.508826 
L 162.939418 -115.284534 
L 161.29643 -114.060243 
L 159.653441 -112.835951 
L 158.010453 -111.61166 
L 156.367464 -110.387368 
L 154.724476 -109.163077 
L 153.081487 -107.938785 
L 151.438498 -106.714494 
L 149.79551 -105.490202 
L 148.152521 -104.265911 
L 146.509533 -103.041619 
L 144.866544 -101.817328 
L 143.223555 -100.593036 
L 141.580567 -99.368745 
L 139.937578 -98.144453 
L 138.29459 -96.920162 
L 136.651601 -95.69587 
L 135.008612 -94.471579 
L 133.365624 -93.247287 
L 131.722635 -92.022996 
L 130.079647 -90.798704 
L 128.436658 -89.574413 
L 126.793669 -88.350121 
L 125.150681 -87.12583 
L 123.507692 -85.901538 
L 121.864704 -84.677247 
L 120.221715 -83.452955 
L 118.578727 -82.228664 
L 116.935738 -81.004372 
L 115.292749 -79.780081 
L 113.649761 -78.555789 
L 112.006772 -77.331498 
L 110.363784 -76.107206 
L 108.720795 -74.882915 
L 107.077806 -73.658623 
L 105.434818 -72.434332 
L 103.791829 -71.21004 
L 102.148841 -69.985749 
L 100.505852 -68.761457 
L 98.862863 -67.537166 
L 97.219875 -66.312874 
L 95.576886 -65.088583 
L 93.933898 -63.864291 
L 92.290909 -62.64 
z
" style="stroke: #add8e6; stroke-opacity: 0.5"/>
    </defs>
    <g clip-path="url(#p2b5799bb33)">
     <use xlink:href="#mc70b6a5c66" x="0" y="432" style="fill: #add8e6; fill-opacity: 0.5; stroke: #add8e6; stroke-opacity: 0.5"/>
    </g>
   </g>
   <g id="matplotlib.axis_1">
    <g id="xtick_1">
     <g id="line2d_1">
      <defs>
       <path id="mb2b51e5510" d="M 0 0 
L 0 3.5 
" style="stroke: #000000; stroke-width: 0.8"/>
      </defs>
      <g>
       <use xlink:href="#mb2b51e5510" x="92.290909" y="384.48" style="stroke: #000000; stroke-width: 0.8"/>
      </g>
     </g>
     <g id="text_1">
      <!-- 0.0 -->
      <g transform="translate(84.339347 399.078438) scale(0.1 -0.1)">
       <defs>
        <path id="DejaVuSans-30" d="M 2034 4250 
Q 1547 4250 1301 3770 
Q 1056 3291 1056 2328 
Q 1056 1369 1301 889 
Q 1547 409 2034 409 
Q 2525 409 2770 889 
Q 3016 1369 3016 2328 
Q 3016 3291 2770 3770 
Q 2525 4250 2034 4250 
z
M 2034 4750 
Q 2819 4750 3233 4129 
Q 3647 3509 3647 2328 
Q 3647 1150 3233 529 
Q 2819 -91 2034 -91 
Q 1250 -91 836 529 
Q 422 1150 422 2328 
Q 422 3509 836 4129 
Q 1250 4750 2034 4750 
z
" transform="scale(0.015625)"/>
        <path id="DejaVuSans-2e" d="M 684 794 
L 1344 794 
L 1344 0 
L 684 0 
L 684 794 
z
" transform="scale(0.015625)"/>
       </defs>
       <use xlink:href="#DejaVuSans-30"/>
       <use xlink:href="#DejaVuSans-2e" x="63.623047"/>
       <use xlink:href="#DejaVuSans-30" x="95.410156"/>
      </g>
     </g>
    </g>
    <g id="xtick_2">
     <g id="line2d_2">
      <g>
       <use xlink:href="#mb2b51e5510" x="173.454545" y="384.48" style="stroke: #000000; stroke-width: 0.8"/>
      </g>
     </g>
     <g id="text_2">
      <!-- 0.2 -->
      <g transform="translate(165.502983 399.078438) scale(0.1 -0.1)">
       <defs>
        <path id="DejaVuSans-32" d="M 1228 531 
L 3431 531 
L 3431 0 
L 469 0 
L 469 531 
Q 828 903 1448 1529 
Q 2069 2156 2228 2338 
Q 2531 2678 2651 2914 
Q 2772 3150 2772 3378 
Q 2772 3750 2511 3984 
Q 2250 4219 1831 4219 
Q 1534 4219 1204 4116 
Q 875 4013 500 3803 
L 500 4441 
Q 881 4594 1212 4672 
Q 1544 4750 1819 4750 
Q 2544 4750 2975 4387 
Q 3406 4025 3406 3419 
Q 3406 3131 3298 2873 
Q 3191 2616 2906 2266 
Q 2828 2175 2409 1742 
Q 1991 1309 1228 531 
z
" transform="scale(0.015625)"/>
       </defs>
       <use xlink:href="#DejaVuSans-30"/>
       <use xlink:href="#DejaVuSans-2e" x="63.623047"/>
       <use xlink:href="#DejaVuSans-32" x="95.410156"/>
      </g>
     </g>
    </g>
    <g id="xtick_3">
     <g id="line2d_3">
      <g>
       <use xlink:href="#mb2b51e5510" x="254.618182" y="384.48" style="stroke: #000000; stroke-width: 0.8"/>
      </g>
     </g>
     <g id="text_3">
      <!-- 0.4 -->
      <g transform="translate(246.666619 399.078438) scale(0.1 -0.1)">
       <defs>
        <path id="DejaVuSans-34" d="M 2419 4116 
L 825 1625 
L 2419 1625 
L 2419 4116 
z
M 2253 4666 
L 3047 4666 
L 3047 1625 
L 3713 1625 
L 3713 1100 
L 3047 1100 
L 3047 0 
L 2419 0 
L 2419 1100 
L 313 1100 
L 313 1709 
L 2253 4666 
z
" transform="scale(0.015625)"/>
       </defs>
       <use xlink:href="#DejaVuSans-30"/>
       <use xlink:href="#DejaVuSans-2e" x="63.623047"/>
       <use xlink:href="#DejaVuSans-34" x="95.410156"/>
      </g>
     </g>
    </g>
    <g id="xtick_4">
     <g id="line2d_4">
      <g>
       <use xlink:href="#mb2b51e5510" x="335.781818" y="384.48" style="stroke: #000000; stroke-width: 0.8"/>
      </g>
     </g>
     <g id="text_4">
      <!-- 0.6 -->
      <g transform="translate(327.830256 399.078438) scale(0.1 -0.1)">
       <defs>
        <path id="DejaVuSans-36" d="M 2113 2584 
Q 1688 2584 1439 2293 
Q 1191 2003 1191 1497 
Q 1191 994 1439 701 
Q 1688 409 2113 409 
Q 2538 409 2786 701 
Q 3034 994 3034 1497 
Q 3034 2003 2786 2293 
Q 2538 2584 2113 2584 
z
M 3366 4563 
L 3366 3988 
Q 3128 4100 2886 4159 
Q 2644 4219 2406 4219 
Q 1781 4219 1451 3797 
Q 1122 3375 1075 2522 
Q 1259 2794 1537 2939 
Q 1816 3084 2150 3084 
Q 2853 3084 3261 2657 
Q 3669 2231 3669 1497 
Q 3669 778 3244 343 
Q 2819 -91 2113 -91 
Q 1303 -91 875 529 
Q 447 1150 447 2328 
Q 447 3434 972 4092 
Q 1497 4750 2381 4750 
Q 2619 4750 2861 4703 
Q 3103 4656 3366 4563 
z
" transform="scale(0.015625)"/>
       </defs>
       <use xlink:href="#DejaVuSans-30"/>
       <use xlink:href="#DejaVuSans-2e" x="63.623047"/>
       <use xlink:href="#DejaVuSans-36" x="95.410156"/>
      </g>
     </g>
    </g>
    <g id="xtick_5">
     <g id="line2d_5">
      <g>
       <use xlink:href="#mb2b51e5510" x="416.945455" y="384.48" style="stroke: #000000; stroke-width: 0.8"/>
      </g>
     </g>
     <g id="text_5">
      <!-- 0.8 -->
      <g transform="translate(408.993892 399.078438) scale(0.1 -0.1)">
       <defs>
        <path id="DejaVuSans-38" d="M 2034 2216 
Q 1584 2216 1326 1975 
Q 1069 1734 1069 1313 
Q 1069 891 1326 650 
Q 1584 409 2034 409 
Q 2484 409 2743 651 
Q 3003 894 3003 1313 
Q 3003 1734 2745 1975 
Q 2488 2216 2034 2216 
z
M 1403 2484 
Q 997 2584 770 2862 
Q 544 3141 544 3541 
Q 544 4100 942 4425 
Q 1341 4750 2034 4750 
Q 2731 4750 3128 4425 
Q 3525 4100 3525 3541 
Q 3525 3141 3298 2862 
Q 3072 2584 2669 2484 
Q 3125 2378 3379 2068 
Q 3634 1759 3634 1313 
Q 3634 634 3220 271 
Q 2806 -91 2034 -91 
Q 1263 -91 848 271 
Q 434 634 434 1313 
Q 434 1759 690 2068 
Q 947 2378 1403 2484 
z
M 1172 3481 
Q 1172 3119 1398 2916 
Q 1625 2713 2034 2713 
Q 2441 2713 2670 2916 
Q 2900 3119 2900 3481 
Q 2900 3844 2670 4047 
Q 2441 4250 2034 4250 
Q 1625 4250 1398 4047 
Q 1172 3844 1172 3481 
z
" transform="scale(0.015625)"/>
       </defs>
       <use xlink:href="#DejaVuSans-30"/>
       <use xlink:href="#DejaVuSans-2e" x="63.623047"/>
       <use xlink:href="#DejaVuSans-38" x="95.410156"/>
      </g>
     </g>
    </g>
    <g id="xtick_6">
     <g id="line2d_6">
      <g>
       <use xlink:href="#mb2b51e5510" x="498.109091" y="384.48" style="stroke: #000000; stroke-width: 0.8"/>
      </g>
     </g>
     <g id="text_6">
      <!-- 1.0 -->
      <g transform="translate(490.157528 399.078438) scale(0.1 -0.1)">
       <defs>
        <path id="DejaVuSans-31" d="M 794 531 
L 1825 531 
L 1825 4091 
L 703 3866 
L 703 4441 
L 1819 4666 
L 2450 4666 
L 2450 531 
L 3481 531 
L 3481 0 
L 794 0 
L 794 531 
z
" transform="scale(0.015625)"/>
       </defs>
       <use xlink:href="#DejaVuSans-31"/>
       <use xlink:href="#DejaVuSans-2e" x="63.623047"/>
       <use xlink:href="#DejaVuSans-30" x="95.410156"/>
      </g>
     </g>
    </g>
    <g id="text_7">
     <!-- Proproção dos endereços -->
     <g transform="translate(232.275781 412.926875) scale(0.1 -0.1)">
      <defs>
       <path id="DejaVuSans-50" d="M 1259 4147 
L 1259 2394 
L 2053 2394 
Q 2494 2394 2734 2622 
Q 2975 2850 2975 3272 
Q 2975 3691 2734 3919 
Q 2494 4147 2053 4147 
L 1259 4147 
z
M 628 4666 
L 2053 4666 
Q 2838 4666 3239 4311 
Q 3641 3956 3641 3272 
Q 3641 2581 3239 2228 
Q 2838 1875 2053 1875 
L 1259 1875 
L 1259 0 
L 628 0 
L 628 4666 
z
" transform="scale(0.015625)"/>
       <path id="DejaVuSans-72" d="M 2631 2963 
Q 2534 3019 2420 3045 
Q 2306 3072 2169 3072 
Q 1681 3072 1420 2755 
Q 1159 2438 1159 1844 
L 1159 0 
L 581 0 
L 581 3500 
L 1159 3500 
L 1159 2956 
Q 1341 3275 1631 3429 
Q 1922 3584 2338 3584 
Q 2397 3584 2469 3576 
Q 2541 3569 2628 3553 
L 2631 2963 
z
" transform="scale(0.015625)"/>
       <path id="DejaVuSans-6f" d="M 1959 3097 
Q 1497 3097 1228 2736 
Q 959 2375 959 1747 
Q 959 1119 1226 758 
Q 1494 397 1959 397 
Q 2419 397 2687 759 
Q 2956 1122 2956 1747 
Q 2956 2369 2687 2733 
Q 2419 3097 1959 3097 
z
M 1959 3584 
Q 2709 3584 3137 3096 
Q 3566 2609 3566 1747 
Q 3566 888 3137 398 
Q 2709 -91 1959 -91 
Q 1206 -91 779 398 
Q 353 888 353 1747 
Q 353 2609 779 3096 
Q 1206 3584 1959 3584 
z
" transform="scale(0.015625)"/>
       <path id="DejaVuSans-70" d="M 1159 525 
L 1159 -1331 
L 581 -1331 
L 581 3500 
L 1159 3500 
L 1159 2969 
Q 1341 3281 1617 3432 
Q 1894 3584 2278 3584 
Q 2916 3584 3314 3078 
Q 3713 2572 3713 1747 
Q 3713 922 3314 415 
Q 2916 -91 2278 -91 
Q 1894 -91 1617 61 
Q 1341 213 1159 525 
z
M 3116 1747 
Q 3116 2381 2855 2742 
Q 2594 3103 2138 3103 
Q 1681 3103 1420 2742 
Q 1159 2381 1159 1747 
Q 1159 1113 1420 752 
Q 1681 391 2138 391 
Q 2594 391 2855 752 
Q 3116 1113 3116 1747 
z
" transform="scale(0.015625)"/>
       <path id="DejaVuSans-e7" d="M 3122 3366 
L 3122 2828 
Q 2878 2963 2633 3030 
Q 2388 3097 2138 3097 
Q 1578 3097 1268 2742 
Q 959 2388 959 1747 
Q 959 1106 1268 751 
Q 1578 397 2138 397 
Q 2388 397 2633 464 
Q 2878 531 3122 666 
L 3122 134 
Q 2881 22 2623 -34 
Q 2366 -91 2075 -91 
Q 1284 -91 818 406 
Q 353 903 353 1747 
Q 353 2603 823 3093 
Q 1294 3584 2113 3584 
Q 2378 3584 2631 3529 
Q 2884 3475 3122 3366 
z
M 2311 0 
Q 2482 -194 2566 -358 
Q 2651 -522 2651 -672 
Q 2651 -950 2463 -1092 
Q 2276 -1234 1907 -1234 
Q 1764 -1234 1628 -1215 
Q 1492 -1197 1357 -1159 
L 1357 -750 
Q 1464 -803 1579 -826 
Q 1695 -850 1842 -850 
Q 2026 -850 2120 -775 
Q 2214 -700 2214 -556 
Q 2214 -463 2146 -327 
Q 2079 -191 1939 0 
L 2311 0 
z
" transform="scale(0.015625)"/>
       <path id="DejaVuSans-e3" d="M 2194 1759 
Q 1497 1759 1228 1600 
Q 959 1441 959 1056 
Q 959 750 1161 570 
Q 1363 391 1709 391 
Q 2188 391 2477 730 
Q 2766 1069 2766 1631 
L 2766 1759 
L 2194 1759 
z
M 3341 1997 
L 3341 0 
L 2766 0 
L 2766 531 
Q 2569 213 2275 61 
Q 1981 -91 1556 -91 
Q 1019 -91 701 211 
Q 384 513 384 1019 
Q 384 1609 779 1909 
Q 1175 2209 1959 2209 
L 2766 2209 
L 2766 2266 
Q 2766 2663 2505 2880 
Q 2244 3097 1772 3097 
Q 1472 3097 1187 3025 
Q 903 2953 641 2809 
L 641 3341 
Q 956 3463 1253 3523 
Q 1550 3584 1831 3584 
Q 2591 3584 2966 3190 
Q 3341 2797 3341 1997 
z
M 1844 4281 
L 1665 4453 
Q 1597 4516 1545 4545 
Q 1494 4575 1453 4575 
Q 1334 4575 1278 4461 
Q 1222 4347 1215 4091 
L 825 4091 
Q 831 4513 990 4742 
Q 1150 4972 1434 4972 
Q 1553 4972 1653 4928 
Q 1753 4884 1869 4781 
L 2047 4609 
Q 2115 4547 2167 4517 
Q 2219 4488 2259 4488 
Q 2378 4488 2434 4602 
Q 2490 4716 2497 4972 
L 2887 4972 
Q 2881 4550 2721 4320 
Q 2562 4091 2278 4091 
Q 2159 4091 2059 4134 
Q 1959 4178 1844 4281 
z
" transform="scale(0.015625)"/>
       <path id="DejaVuSans-20" transform="scale(0.015625)"/>
       <path id="DejaVuSans-64" d="M 2906 2969 
L 2906 4863 
L 3481 4863 
L 3481 0 
L 2906 0 
L 2906 525 
Q 2725 213 2448 61 
Q 2172 -91 1784 -91 
Q 1150 -91 751 415 
Q 353 922 353 1747 
Q 353 2572 751 3078 
Q 1150 3584 1784 3584 
Q 2172 3584 2448 3432 
Q 2725 3281 2906 2969 
z
M 947 1747 
Q 947 1113 1208 752 
Q 1469 391 1925 391 
Q 2381 391 2643 752 
Q 2906 1113 2906 1747 
Q 2906 2381 2643 2742 
Q 2381 3103 1925 3103 
Q 1469 3103 1208 2742 
Q 947 2381 947 1747 
z
" transform="scale(0.015625)"/>
       <path id="DejaVuSans-73" d="M 2834 3397 
L 2834 2853 
Q 2591 2978 2328 3040 
Q 2066 3103 1784 3103 
Q 1356 3103 1142 2972 
Q 928 2841 928 2578 
Q 928 2378 1081 2264 
Q 1234 2150 1697 2047 
L 1894 2003 
Q 2506 1872 2764 1633 
Q 3022 1394 3022 966 
Q 3022 478 2636 193 
Q 2250 -91 1575 -91 
Q 1294 -91 989 -36 
Q 684 19 347 128 
L 347 722 
Q 666 556 975 473 
Q 1284 391 1588 391 
Q 1994 391 2212 530 
Q 2431 669 2431 922 
Q 2431 1156 2273 1281 
Q 2116 1406 1581 1522 
L 1381 1569 
Q 847 1681 609 1914 
Q 372 2147 372 2553 
Q 372 3047 722 3315 
Q 1072 3584 1716 3584 
Q 2034 3584 2315 3537 
Q 2597 3491 2834 3397 
z
" transform="scale(0.015625)"/>
       <path id="DejaVuSans-65" d="M 3597 1894 
L 3597 1613 
L 953 1613 
Q 991 1019 1311 708 
Q 1631 397 2203 397 
Q 2534 397 2845 478 
Q 3156 559 3463 722 
L 3463 178 
Q 3153 47 2828 -22 
Q 2503 -91 2169 -91 
Q 1331 -91 842 396 
Q 353 884 353 1716 
Q 353 2575 817 3079 
Q 1281 3584 2069 3584 
Q 2775 3584 3186 3129 
Q 3597 2675 3597 1894 
z
M 3022 2063 
Q 3016 2534 2758 2815 
Q 2500 3097 2075 3097 
Q 1594 3097 1305 2825 
Q 1016 2553 972 2059 
L 3022 2063 
z
" transform="scale(0.015625)"/>
       <path id="DejaVuSans-6e" d="M 3513 2113 
L 3513 0 
L 2938 0 
L 2938 2094 
Q 2938 2591 2744 2837 
Q 2550 3084 2163 3084 
Q 1697 3084 1428 2787 
Q 1159 2491 1159 1978 
L 1159 0 
L 581 0 
L 581 3500 
L 1159 3500 
L 1159 2956 
Q 1366 3272 1645 3428 
Q 1925 3584 2291 3584 
Q 2894 3584 3203 3211 
Q 3513 2838 3513 2113 
z
" transform="scale(0.015625)"/>
      </defs>
      <use xlink:href="#DejaVuSans-50"/>
      <use xlink:href="#DejaVuSans-72" x="58.552734"/>
      <use xlink:href="#DejaVuSans-6f" x="97.416016"/>
      <use xlink:href="#DejaVuSans-70" x="158.597656"/>
      <use xlink:href="#DejaVuSans-72" x="222.074219"/>
      <use xlink:href="#DejaVuSans-6f" x="260.9375"/>
      <use xlink:href="#DejaVuSans-e7" x="322.119141"/>
      <use xlink:href="#DejaVuSans-e3" x="377.099609"/>
      <use xlink:href="#DejaVuSans-6f" x="438.378906"/>
      <use xlink:href="#DejaVuSans-20" x="499.560547"/>
      <use xlink:href="#DejaVuSans-64" x="531.347656"/>
      <use xlink:href="#DejaVuSans-6f" x="594.824219"/>
      <use xlink:href="#DejaVuSans-73" x="656.005859"/>
      <use xlink:href="#DejaVuSans-20" x="708.105469"/>
      <use xlink:href="#DejaVuSans-65" x="739.892578"/>
      <use xlink:href="#DejaVuSans-6e" x="801.416016"/>
      <use xlink:href="#DejaVuSans-64" x="864.794922"/>
      <use xlink:href="#DejaVuSans-65" x="928.271484"/>
      <use xlink:href="#DejaVuSans-72" x="989.794922"/>
      <use xlink:href="#DejaVuSans-65" x="1028.658203"/>
      <use xlink:href="#DejaVuSans-e7" x="1090.181641"/>
      <use xlink:href="#DejaVuSans-6f" x="1145.162109"/>
      <use xlink:href="#DejaVuSans-73" x="1206.34375"/>
     </g>
    </g>
   </g>
   <g id="matplotlib.axis_2">
    <g id="ytick_1">
     <g id="line2d_7">
      <defs>
       <path id="m84f842fa26" d="M 0 0 
L -3.5 0 
" style="stroke: #000000; stroke-width: 0.8"/>
      </defs>
      <g>
       <use xlink:href="#m84f842fa26" x="72" y="369.36" style="stroke: #000000; stroke-width: 0.8"/>
      </g>
     </g>
     <g id="text_8">
      <!-- 0.0 -->
      <g transform="translate(49.096875 373.159219) scale(0.1 -0.1)">
       <use xlink:href="#DejaVuSans-30"/>
       <use xlink:href="#DejaVuSans-2e" x="63.623047"/>
       <use xlink:href="#DejaVuSans-30" x="95.410156"/>
      </g>
     </g>
    </g>
    <g id="ytick_2">
     <g id="line2d_8">
      <g>
       <use xlink:href="#m84f842fa26" x="72" y="308.88" style="stroke: #000000; stroke-width: 0.8"/>
      </g>
     </g>
     <g id="text_9">
      <!-- 0.2 -->
      <g transform="translate(49.096875 312.679219) scale(0.1 -0.1)">
       <use xlink:href="#DejaVuSans-30"/>
       <use xlink:href="#DejaVuSans-2e" x="63.623047"/>
       <use xlink:href="#DejaVuSans-32" x="95.410156"/>
      </g>
     </g>
    </g>
    <g id="ytick_3">
     <g id="line2d_9">
      <g>
       <use xlink:href="#m84f842fa26" x="72" y="248.4" style="stroke: #000000; stroke-width: 0.8"/>
      </g>
     </g>
     <g id="text_10">
      <!-- 0.4 -->
      <g transform="translate(49.096875 252.199219) scale(0.1 -0.1)">
       <use xlink:href="#DejaVuSans-30"/>
       <use xlink:href="#DejaVuSans-2e" x="63.623047"/>
       <use xlink:href="#DejaVuSans-34" x="95.410156"/>
      </g>
     </g>
    </g>
    <g id="ytick_4">
     <g id="line2d_10">
      <g>
       <use xlink:href="#m84f842fa26" x="72" y="187.92" style="stroke: #000000; stroke-width: 0.8"/>
      </g>
     </g>
     <g id="text_11">
      <!-- 0.6 -->
      <g transform="translate(49.096875 191.719219) scale(0.1 -0.1)">
       <use xlink:href="#DejaVuSans-30"/>
       <use xlink:href="#DejaVuSans-2e" x="63.623047"/>
       <use xlink:href="#DejaVuSans-36" x="95.410156"/>
      </g>
     </g>
    </g>
    <g id="ytick_5">
     <g id="line2d_11">
      <g>
       <use xlink:href="#m84f842fa26" x="72" y="127.44" style="stroke: #000000; stroke-width: 0.8"/>
      </g>
     </g>
     <g id="text_12">
      <!-- 0.8 -->
      <g transform="translate(49.096875 131.239219) scale(0.1 -0.1)">
       <use xlink:href="#DejaVuSans-30"/>
       <use xlink:href="#DejaVuSans-2e" x="63.623047"/>
       <use xlink:href="#DejaVuSans-38" x="95.410156"/>
      </g>
     </g>
    </g>
    <g id="ytick_6">
     <g id="line2d_12">
      <g>
       <use xlink:href="#m84f842fa26" x="72" y="66.96" style="stroke: #000000; stroke-width: 0.8"/>
      </g>
     </g>
     <g id="text_13">
      <!-- 1.0 -->
      <g transform="translate(49.096875 70.759219) scale(0.1 -0.1)">
       <use xlink:href="#DejaVuSans-31"/>
       <use xlink:href="#DejaVuSans-2e" x="63.623047"/>
       <use xlink:href="#DejaVuSans-30" x="95.410156"/>
      </g>
     </g>
    </g>
    <g id="text_14">
     <!-- Proporção da riqueza -->
     <g transform="translate(43.017187 271.107656) rotate(-90) scale(0.1 -0.1)">
      <defs>
       <path id="DejaVuSans-61" d="M 2194 1759 
Q 1497 1759 1228 1600 
Q 959 1441 959 1056 
Q 959 750 1161 570 
Q 1363 391 1709 391 
Q 2188 391 2477 730 
Q 2766 1069 2766 1631 
L 2766 1759 
L 2194 1759 
z
M 3341 1997 
L 3341 0 
L 2766 0 
L 2766 531 
Q 2569 213 2275 61 
Q 1981 -91 1556 -91 
Q 1019 -91 701 211 
Q 384 513 384 1019 
Q 384 1609 779 1909 
Q 1175 2209 1959 2209 
L 2766 2209 
L 2766 2266 
Q 2766 2663 2505 2880 
Q 2244 3097 1772 3097 
Q 1472 3097 1187 3025 
Q 903 2953 641 2809 
L 641 3341 
Q 956 3463 1253 3523 
Q 1550 3584 1831 3584 
Q 2591 3584 2966 3190 
Q 3341 2797 3341 1997 
z
" transform="scale(0.015625)"/>
       <path id="DejaVuSans-69" d="M 603 3500 
L 1178 3500 
L 1178 0 
L 603 0 
L 603 3500 
z
M 603 4863 
L 1178 4863 
L 1178 4134 
L 603 4134 
L 603 4863 
z
" transform="scale(0.015625)"/>
       <path id="DejaVuSans-71" d="M 947 1747 
Q 947 1113 1208 752 
Q 1469 391 1925 391 
Q 2381 391 2643 752 
Q 2906 1113 2906 1747 
Q 2906 2381 2643 2742 
Q 2381 3103 1925 3103 
Q 1469 3103 1208 2742 
Q 947 2381 947 1747 
z
M 2906 525 
Q 2725 213 2448 61 
Q 2172 -91 1784 -91 
Q 1150 -91 751 415 
Q 353 922 353 1747 
Q 353 2572 751 3078 
Q 1150 3584 1784 3584 
Q 2172 3584 2448 3432 
Q 2725 3281 2906 2969 
L 2906 3500 
L 3481 3500 
L 3481 -1331 
L 2906 -1331 
L 2906 525 
z
" transform="scale(0.015625)"/>
       <path id="DejaVuSans-75" d="M 544 1381 
L 544 3500 
L 1119 3500 
L 1119 1403 
Q 1119 906 1312 657 
Q 1506 409 1894 409 
Q 2359 409 2629 706 
Q 2900 1003 2900 1516 
L 2900 3500 
L 3475 3500 
L 3475 0 
L 2900 0 
L 2900 538 
Q 2691 219 2414 64 
Q 2138 -91 1772 -91 
Q 1169 -91 856 284 
Q 544 659 544 1381 
z
M 1991 3584 
L 1991 3584 
z
" transform="scale(0.015625)"/>
       <path id="DejaVuSans-7a" d="M 353 3500 
L 3084 3500 
L 3084 2975 
L 922 459 
L 3084 459 
L 3084 0 
L 275 0 
L 275 525 
L 2438 3041 
L 353 3041 
L 353 3500 
z
" transform="scale(0.015625)"/>
      </defs>
      <use xlink:href="#DejaVuSans-50"/>
      <use xlink:href="#DejaVuSans-72" x="58.552734"/>
      <use xlink:href="#DejaVuSans-6f" x="97.416016"/>
      <use xlink:href="#DejaVuSans-70" x="158.597656"/>
      <use xlink:href="#DejaVuSans-6f" x="222.074219"/>
      <use xlink:href="#DejaVuSans-72" x="283.255859"/>
      <use xlink:href="#DejaVuSans-e7" x="322.119141"/>
      <use xlink:href="#DejaVuSans-e3" x="377.099609"/>
      <use xlink:href="#DejaVuSans-6f" x="438.378906"/>
      <use xlink:href="#DejaVuSans-20" x="499.560547"/>
      <use xlink:href="#DejaVuSans-64" x="531.347656"/>
      <use xlink:href="#DejaVuSans-61" x="594.824219"/>
      <use xlink:href="#DejaVuSans-20" x="656.103516"/>
      <use xlink:href="#DejaVuSans-72" x="687.890625"/>
      <use xlink:href="#DejaVuSans-69" x="729.003906"/>
      <use xlink:href="#DejaVuSans-71" x="756.787109"/>
      <use xlink:href="#DejaVuSans-75" x="820.263672"/>
      <use xlink:href="#DejaVuSans-65" x="883.642578"/>
      <use xlink:href="#DejaVuSans-7a" x="945.166016"/>
      <use xlink:href="#DejaVuSans-61" x="997.65625"/>
     </g>
    </g>
   </g>
   <g id="line2d_13">
    <path d="M 92.290909 369.36 
L 478.393228 369.36 
L 480.036216 369.01765 
L 483.322194 367.968855 
L 484.965182 365.135909 
L 486.608171 361.975715 
L 488.251159 357.375253 
L 491.537137 346.451479 
L 493.180125 336.806363 
L 494.823114 312.608441 
L 496.466102 201.200544 
L 498.109091 66.96 
L 498.109091 66.96 
" clip-path="url(#p2b5799bb33)" style="fill: none; stroke: #0000ff; stroke-width: 1.5; stroke-linecap: square"/>
   </g>
   <g id="line2d_14">
    <path d="M 92.290909 369.36 
L 498.109091 66.96 
" clip-path="url(#p2b5799bb33)" style="fill: none; stroke-dasharray: 5.55,2.4; stroke-dashoffset: 0; stroke: #ff0000; stroke-width: 1.5"/>
   </g>
   <g id="patch_3">
    <path d="M 72 384.48 
L 72 51.84 
" style="fill: none; stroke: #000000; stroke-width: 0.8; stroke-linejoin: miter; stroke-linecap: square"/>
   </g>
   <g id="patch_4">
    <path d="M 518.4 384.48 
L 518.4 51.84 
" style="fill: none; stroke: #000000; stroke-width: 0.8; stroke-linejoin: miter; stroke-linecap: square"/>
   </g>
   <g id="patch_5">
    <path d="M 72 384.48 
L 518.4 384.48 
" style="fill: none; stroke: #000000; stroke-width: 0.8; stroke-linejoin: miter; stroke-linecap: square"/>
   </g>
   <g id="patch_6">
    <path d="M 72 51.84 
L 518.4 51.84 
" style="fill: none; stroke: #000000; stroke-width: 0.8; stroke-linejoin: miter; stroke-linecap: square"/>
   </g>
   <g id="text_15">
    <!-- Curva de Lorenz -->
    <g transform="translate(246.314062 45.84) scale(0.12 -0.12)">
     <defs>
      <path id="DejaVuSans-43" d="M 4122 4306 
L 4122 3641 
Q 3803 3938 3442 4084 
Q 3081 4231 2675 4231 
Q 1875 4231 1450 3742 
Q 1025 3253 1025 2328 
Q 1025 1406 1450 917 
Q 1875 428 2675 428 
Q 3081 428 3442 575 
Q 3803 722 4122 1019 
L 4122 359 
Q 3791 134 3420 21 
Q 3050 -91 2638 -91 
Q 1578 -91 968 557 
Q 359 1206 359 2328 
Q 359 3453 968 4101 
Q 1578 4750 2638 4750 
Q 3056 4750 3426 4639 
Q 3797 4528 4122 4306 
z
" transform="scale(0.015625)"/>
      <path id="DejaVuSans-76" d="M 191 3500 
L 800 3500 
L 1894 563 
L 2988 3500 
L 3597 3500 
L 2284 0 
L 1503 0 
L 191 3500 
z
" transform="scale(0.015625)"/>
      <path id="DejaVuSans-4c" d="M 628 4666 
L 1259 4666 
L 1259 531 
L 3531 531 
L 3531 0 
L 628 0 
L 628 4666 
z
" transform="scale(0.015625)"/>
     </defs>
     <use xlink:href="#DejaVuSans-43"/>
     <use xlink:href="#DejaVuSans-75" x="69.824219"/>
     <use xlink:href="#DejaVuSans-72" x="133.203125"/>
     <use xlink:href="#DejaVuSans-76" x="174.316406"/>
     <use xlink:href="#DejaVuSans-61" x="233.496094"/>
     <use xlink:href="#DejaVuSans-20" x="294.775391"/>
     <use xlink:href="#DejaVuSans-64" x="326.5625"/>
     <use xlink:href="#DejaVuSans-65" x="390.039062"/>
     <use xlink:href="#DejaVuSans-20" x="451.5625"/>
     <use xlink:href="#DejaVuSans-4c" x="483.349609"/>
     <use xlink:href="#DejaVuSans-6f" x="537.3125"/>
     <use xlink:href="#DejaVuSans-72" x="598.494141"/>
     <use xlink:href="#DejaVuSans-65" x="637.357422"/>
     <use xlink:href="#DejaVuSans-6e" x="698.880859"/>
     <use xlink:href="#DejaVuSans-7a" x="762.259766"/>
    </g>
   </g>
   <g id="legend_1">
    <g id="patch_7">
     <path d="M 79 89.19625 
L 202.810938 89.19625 
Q 204.810938 89.19625 204.810938 87.19625 
L 204.810938 58.84 
Q 204.810938 56.84 202.810938 56.84 
L 79 56.84 
Q 77 56.84 77 58.84 
L 77 87.19625 
Q 77 89.19625 79 89.19625 
z
" style="fill: #ffffff; opacity: 0.8; stroke: #cccccc; stroke-linejoin: miter"/>
    </g>
    <g id="line2d_15">
     <path d="M 81 64.938437 
L 91 64.938437 
L 101 64.938437 
" style="fill: none; stroke: #0000ff; stroke-width: 1.5; stroke-linecap: square"/>
    </g>
    <g id="text_16">
     <!-- Curva de Lorenz -->
     <g transform="translate(109 68.438437) scale(0.1 -0.1)">
      <use xlink:href="#DejaVuSans-43"/>
      <use xlink:href="#DejaVuSans-75" x="69.824219"/>
      <use xlink:href="#DejaVuSans-72" x="133.203125"/>
      <use xlink:href="#DejaVuSans-76" x="174.316406"/>
      <use xlink:href="#DejaVuSans-61" x="233.496094"/>
      <use xlink:href="#DejaVuSans-20" x="294.775391"/>
      <use xlink:href="#DejaVuSans-64" x="326.5625"/>
      <use xlink:href="#DejaVuSans-65" x="390.039062"/>
      <use xlink:href="#DejaVuSans-20" x="451.5625"/>
      <use xlink:href="#DejaVuSans-4c" x="483.349609"/>
      <use xlink:href="#DejaVuSans-6f" x="537.3125"/>
      <use xlink:href="#DejaVuSans-72" x="598.494141"/>
      <use xlink:href="#DejaVuSans-65" x="637.357422"/>
      <use xlink:href="#DejaVuSans-6e" x="698.880859"/>
      <use xlink:href="#DejaVuSans-7a" x="762.259766"/>
     </g>
    </g>
    <g id="line2d_16">
     <path d="M 81 79.616562 
L 91 79.616562 
L 101 79.616562 
" style="fill: none; stroke-dasharray: 5.55,2.4; stroke-dashoffset: 0; stroke: #ff0000; stroke-width: 1.5"/>
    </g>
    <g id="text_17">
     <!-- Igualdade perfeita -->
     <g transform="translate(109 83.116562) scale(0.1 -0.1)">
      <defs>
       <path id="DejaVuSans-49" d="M 628 4666 
L 1259 4666 
L 1259 0 
L 628 0 
L 628 4666 
z
" transform="scale(0.015625)"/>
       <path id="DejaVuSans-67" d="M 2906 1791 
Q 2906 2416 2648 2759 
Q 2391 3103 1925 3103 
Q 1463 3103 1205 2759 
Q 947 2416 947 1791 
Q 947 1169 1205 825 
Q 1463 481 1925 481 
Q 2391 481 2648 825 
Q 2906 1169 2906 1791 
z
M 3481 434 
Q 3481 -459 3084 -895 
Q 2688 -1331 1869 -1331 
Q 1566 -1331 1297 -1286 
Q 1028 -1241 775 -1147 
L 775 -588 
Q 1028 -725 1275 -790 
Q 1522 -856 1778 -856 
Q 2344 -856 2625 -561 
Q 2906 -266 2906 331 
L 2906 616 
Q 2728 306 2450 153 
Q 2172 0 1784 0 
Q 1141 0 747 490 
Q 353 981 353 1791 
Q 353 2603 747 3093 
Q 1141 3584 1784 3584 
Q 2172 3584 2450 3431 
Q 2728 3278 2906 2969 
L 2906 3500 
L 3481 3500 
L 3481 434 
z
" transform="scale(0.015625)"/>
       <path id="DejaVuSans-6c" d="M 603 4863 
L 1178 4863 
L 1178 0 
L 603 0 
L 603 4863 
z
" transform="scale(0.015625)"/>
       <path id="DejaVuSans-66" d="M 2375 4863 
L 2375 4384 
L 1825 4384 
Q 1516 4384 1395 4259 
Q 1275 4134 1275 3809 
L 1275 3500 
L 2222 3500 
L 2222 3053 
L 1275 3053 
L 1275 0 
L 697 0 
L 697 3053 
L 147 3053 
L 147 3500 
L 697 3500 
L 697 3744 
Q 697 4328 969 4595 
Q 1241 4863 1831 4863 
L 2375 4863 
z
" transform="scale(0.015625)"/>
       <path id="DejaVuSans-74" d="M 1172 4494 
L 1172 3500 
L 2356 3500 
L 2356 3053 
L 1172 3053 
L 1172 1153 
Q 1172 725 1289 603 
Q 1406 481 1766 481 
L 2356 481 
L 2356 0 
L 1766 0 
Q 1100 0 847 248 
Q 594 497 594 1153 
L 594 3053 
L 172 3053 
L 172 3500 
L 594 3500 
L 594 4494 
L 1172 4494 
z
" transform="scale(0.015625)"/>
      </defs>
      <use xlink:href="#DejaVuSans-49"/>
      <use xlink:href="#DejaVuSans-67" x="29.492188"/>
      <use xlink:href="#DejaVuSans-75" x="92.96875"/>
      <use xlink:href="#DejaVuSans-61" x="156.347656"/>
      <use xlink:href="#DejaVuSans-6c" x="217.626953"/>
      <use xlink:href="#DejaVuSans-64" x="245.410156"/>
      <use xlink:href="#DejaVuSans-61" x="308.886719"/>
      <use xlink:href="#DejaVuSans-64" x="370.166016"/>
      <use xlink:href="#DejaVuSans-65" x="433.642578"/>
      <use xlink:href="#DejaVuSans-20" x="495.166016"/>
      <use xlink:href="#DejaVuSans-70" x="526.953125"/>
      <use xlink:href="#DejaVuSans-65" x="590.429688"/>
      <use xlink:href="#DejaVuSans-72" x="651.953125"/>
      <use xlink:href="#DejaVuSans-66" x="693.066406"/>
      <use xlink:href="#DejaVuSans-65" x="728.271484"/>
      <use xlink:href="#DejaVuSans-69" x="789.794922"/>
      <use xlink:href="#DejaVuSans-74" x="817.578125"/>
      <use xlink:href="#DejaVuSans-61" x="856.787109"/>
     </g>
    </g>
   </g>
  </g>
 </g>
 <defs>
  <clipPath id="p2b5799bb33">
   <rect x="72" y="51.84" width="446.4" height="332.64"/>
  </clipPath>
 </defs>
</svg>
